<svg width="788" height="788" xmlns="http://www.w3.org/2000/svg" xmlns:xlink="http://www.w3.org/1999/xlink" overflow="hidden"><defs><clipPath id="clip0"><rect x="566" y="146" width="788" height="788"/></clipPath></defs><g clip-path="url(#clip0)" transform="translate(-566 -146)"><path d="M960 199.859C772.145 199.859 619.859 352.145 619.859 540 619.859 727.855 772.145 880.141 960 880.141 1147.85 880.141 1300.14 727.855 1300.14 540 1300.14 352.145 1147.85 199.859 960 199.859ZM960 146C1177.6 146 1354 322.4 1354 540 1354 757.6 1177.6 934 960 934 742.4 934 566 757.6 566 540 566 322.4 742.4 146 960 146Z" fill="#3459FF" fill-rule="evenodd"/></g></svg>